<svg width="870" height="343" viewBox="0 0 870 343" fill="none" xmlns="http://www.w3.org/2000/svg">
<path d="M324.05 193.6C311.3 193.6 300.95 183.25 300.95 170.5C300.95 157.75 311.3 147.4 324.05 147.4C336.875 147.4 347.15 157.75 347.15 170.5C347.15 183.25 336.875 193.6 324.05 193.6ZM324.05 192.4C336.2 192.4 345.95 182.65 345.95 170.5C345.95 158.35 336.2 148.6 324.05 148.6C311.975 148.6 302.15 158.35 302.15 170.5C302.15 182.65 311.975 192.4 324.05 192.4Z" fill="#FFDE59"/>
<path d="M313.779 111.731C287.313 50.0747 220.873 11.7165 150.529 22.6205C67.3939 35.507 10.2871 112.318 22.9768 194.183C35.6666 276.048 113.348 331.967 196.482 319.08C263.828 308.641 314.094 256.252 324.011 193.209" stroke="#FFDE59"/>
<path d="M169.75 132H171.5V207H169.5V136.625L138 207H136.375L105 136.625V207H103V132H104.75L137.25 204.5L169.75 132ZM229.277 208C208.027 208 190.777 190.75 190.777 169.5C190.777 148.25 208.027 131 229.277 131C250.652 131 267.777 148.25 267.777 169.5C267.777 190.75 250.652 208 229.277 208ZM229.277 206C249.527 206 265.777 189.75 265.777 169.5C265.777 149.25 249.527 133 229.277 133C209.152 133 192.777 149.25 192.777 169.5C192.777 189.75 209.152 206 229.277 206ZM322.93 208C301.68 208 284.43 190.75 284.43 169.5C284.43 148.25 301.68 131 322.93 131C344.305 131 361.43 148.25 361.43 169.5C361.43 190.75 344.305 208 322.93 208ZM322.93 206C343.18 206 359.43 189.75 359.43 169.5C359.43 149.25 343.18 133 322.93 133C302.805 133 286.43 149.25 286.43 169.5C286.43 189.75 302.805 206 322.93 206ZM434.582 132H436.582V207H435.832L382.832 137.125V207H380.832V132H381.582L434.582 202V132ZM509.566 132H511.566V207H509.566V170.5H460.566V207H458.566V132H460.566V168.5H509.566V132ZM569.316 208C548.066 208 530.816 190.75 530.816 169.5C530.816 148.25 548.066 131 569.316 131C590.691 131 607.816 148.25 607.816 169.5C607.816 190.75 590.691 208 569.316 208ZM569.316 206C589.566 206 605.816 189.75 605.816 169.5C605.816 149.25 589.566 133 569.316 133C549.191 133 532.816 149.25 532.816 169.5C532.816 189.75 549.191 206 569.316 206ZM652.844 208C638.469 208 626.844 196.375 626.844 182V132H628.844V182C628.844 195.25 639.469 206 652.844 206C666.094 206 676.844 195.25 676.844 182V132H678.844V182C678.844 196.375 667.219 208 652.844 208ZM718.211 208C707.211 208 698.461 201.75 695.461 193.875L697.336 193.25C699.961 200.125 707.711 206 718.336 206C728.961 206 738.586 200.125 738.586 189.25C738.586 167.25 699.211 172.75 699.211 148.75C699.211 136.375 709.586 131 718.711 131C726.711 131 733.211 135 736.586 139.5L734.961 140.75C732.086 136.75 726.211 133 718.836 133C710.336 133 701.211 138 701.211 148.75C701.211 170.875 740.586 165.375 740.586 189.25C740.586 202.25 728.961 208 718.211 208ZM796.215 134H760.215V168.5H791.965V170.5H760.215V205H796.215V207H758.215V132H796.215V134Z" fill="white"/>
</svg>
